<svg xmlns="http://www.w3.org/2000/svg" viewBox="0 0 512 512">
  <rect width="512" height="512" rx="110" fill="#0f0f0f"/>
  <g transform="translate(256 312)">
    <path d="M -170 0 A 170 170 0 0 1 -52.5 -161.6 L -36 -110.8 A 116 116 0 0 0 -116 0 Z" fill="#ef4444"/>
    <path d="M -52.5 -161.6 A 170 170 0 0 1 52.5 -161.6 L 36 -110.8 A 116 116 0 0 0 -36 -110.8 Z" fill="#e5b524"/>
    <path d="M 52.5 -161.6 A 170 170 0 0 1 170 0 L 116 0 A 116 116 0 0 0 36 -110.8 Z" fill="#22c55e"/>
    <g transform="rotate(38)">
      <rect x="-7" y="-150" width="14" height="150" rx="7" fill="#e5e7eb"/>
    </g>
    <circle cx="0" cy="0" r="22" fill="#2a2a2a" stroke="#333" stroke-width="3"/>
  </g>
</svg>
